# xmcd
#
# Track frame offsets: 
#        150
#        15907
#        23687
#        37926
#        51479
#        62043
#        72618
#        89508
#        99650
#        120437
#        138038
#        152226
#        167903
#        180003
#        193543
#
# Disc length: 2779 seconds
#
# Revision: 0
# Processed by: cddbd v1.5.2PL0 Copyright (c) Steve Scherf et al.
# Submitted via: ExactAudioCopy v1.3
#
DISCID=bc0ad90f
DTITLE=Nico Brina - The B'day Session
DYEAR=2016
DGENRE=Boogie Woogie, Piano Blues
TTITLE0=Mess Of Blues
TTITLE1=Steam Roller Boogie
TTITLE2=Kansas City
TTITLE3=That's My Way
TTITLE4=That's All Right Mama
TTITLE5=Blue Moon Of Kentucky
TTITLE6=Who Cares, Just Boogie
TTITLE7=Washboard Boogie
TTITLE8=Before You Accuse Me
TTITLE9=More Fun Than A Barrel Of Monkeys
TTITLE10=Blues With A Feeling
TTITLE11=Bring It On Home To Me
TTITLE12=WTen the Saints Go Marching In
TTITLE13=Blue Light Boogie
TTITLE14=C-Jam Blues
EXTD=
EXTT0=
EXTT1=
EXTT2=
EXTT3=
EXTT4=
EXTT5=
EXTT6=
EXTT7=
EXTT8=
EXTT9=
EXTT10=
EXTT11=
EXTT12=
EXTT13=
EXTT14=
PLAYORDER=
